<svg xmlns="http://www.w3.org/2000/svg" width="218" height="232">
    <path fill="#FFF" fill-rule="evenodd" d="M218 181.145v15.141h-40.042v-53.271H218v15.105h-18.09l-3.968 3.961h18.089v15.104h-18.089v3.96H218zm-54.302 50.141h-4.259v-21.403h4.259a2.725 2.725 0 0 1 2.728 2.691v16.021a2.724 2.724 0 0 1-2.728 2.691zm.552-18.1c0-.795-.552-1.101-1.165-1.101h-1.44v17.03h1.44c.613 0 1.165-.305 1.165-1.131v-14.798zm-45.445-37.788l22.024-17.243h-16.264l-5.76-5.748v-9.392h40.077v20.922l-22.023 17.278h16.263l5.76 5.713v9.392h-40.077v-20.922zM156.37 47.374v23.665h-34.643l34.506-23.665h.137zm-8.617 70.946H70.746c-6.549 0-8.93-2.376-8.93-8.911V8.91c0-6.535 2.381-8.91 8.93-8.91h77.007c6.55 0 8.931 2.375 8.931 8.91v14.754H80.54v23.664h35.063L80.54 70.991v23.665h76.144v14.753c0 6.535-2.381 8.911-8.931 8.911zm-48.059 39.8H81.605l-3.968 3.96h18.089v15.105H77.637v3.96h22.057v15.14H59.653v-53.269h40.041v15.104zm-38.702 51.763h1.348v21.403h-2.176v-11.037l-1.654 7.337h-.675c-1.286 0-1.532-1.283-1.655-1.742l-1.287-5.595v11.037h-2.176v-21.403h1.349c.859 0 .981.796.981.796l2.543 12.291 2.421-12.322c.031-.092.184-.765.981-.765zm-20.929 6.666l-1.931 14.737h-2.42l3.249-21.403h1.194c.919 0 1.072.581 1.165 1.162l3.095 20.241h-2.421l-1.931-14.737zM.5 143.015h40.042v15.105h-18.09l-3.968 3.961h18.09v15.104h-18.09v3.96h22.058v15.141H.5v-53.271zm21.762 66.655h1.348c1.47.061 2.666 1.253 2.666 2.721v3.333c0 .734-.307 1.039-.614 1.192-.153.092-1.01.489-1.592.734v-4.892c0-.642-.521-1.162-1.166-1.162-.642 0-1.165.52-1.165 1.162v15.654c0 .642.523 1.162 1.165 1.162.645 0 1.166-.52 1.166-1.162v-6.39h-.093c-.491 0-.797-.703-.797-.703l-.736-1.529h2.759c.674 0 1.073.367 1.073 1.193v7.796c0 1.468-1.196 2.66-2.666 2.721h-1.348a2.73 2.73 0 0 1-2.728-2.721v-16.388a2.73 2.73 0 0 1 2.728-2.721zm51.536.213h5.731l-.734 1.591c-.123.275-.461.611-1.166.611h-1.777a.498.498 0 0 0-.521.52v6.36h3.309c-.245.55-.612 1.436-.704 1.62-.153.275-.461.581-1.165.581h-.919a.537.537 0 0 0-.521.52v7.43h4.596c-.245.55-.613 1.406-.705 1.59-.152.275-.49.58-1.194.58h-4.904v-20.791a.67.67 0 0 1 .674-.612zm37.566 13.148l-2.636-4.923c-1.071-1.956-.979-3.393-.979-3.393v-2.202c0-1.498 1.226-2.843 2.758-2.843h1.378c1.472.031 2.667 1.375 2.667 2.843v.826c0 .703-.338 1.039-.613 1.192-.184.092-1.042.49-1.624.734v-2.477a1.17 1.17 0 0 0-1.166-1.192 1.17 1.17 0 0 0-1.164 1.192v2.049c0 1.254.95 2.874.95 2.874l2.636 4.953c1.073 1.957.981 3.394.981 3.394v2.721c0 1.498-1.226 2.721-2.759 2.721h-1.378a2.779 2.779 0 0 1-2.666-2.721v-2.201c0-.703.337-1.04.612-1.192.184-.062 1.073-.459 1.624-.704v3.73c0 .642.522 1.162 1.164 1.162a1.17 1.17 0 0 0 1.166-1.192v-2.446c0-1.254-.951-2.905-.951-2.905zm13.114-13.148h8.764l-.734 1.591c-.124.275-.461.581-1.166.581h-1.715c-.307 0-.522.244-.552.519v18.712h-1.564c-.519 0-.612-.305-.612-.458v-18.773h-3.095v-1.499a.68.68 0 0 1 .674-.673zm17.802 0h1.563v18.499c0 .642.49 1.162 1.134 1.162h.337c.643 0 1.165-.52 1.165-1.162v-18.499h2.206v18.896c0 1.468-1.195 2.569-2.636 2.599v.031h-1.685c-1.501 0-2.727-1.132-2.727-2.63v-18.284c.031-.336.307-.612.643-.612zm37.995.857v20.546h-1.564c-.52 0-.612-.305-.642-.458v-20.945h1.317c.643 0 .889.49.889.857zm14.34-1.07h1.686c1.47.061 2.665 1.253 2.665 2.721v16.419c-.031 1.468-1.195 2.629-2.665 2.69h-1.686c-1.502 0-2.728-1.222-2.758-2.69v-16.419c0-1.498 1.226-2.721 2.758-2.721zm-.552 18.712c0 .641.522 1.161 1.165 1.192h.336a1.17 1.17 0 0 0 1.165-1.192v-15.594a1.17 1.17 0 0 0-1.165-1.192h-.336c-.643.03-1.165.55-1.165 1.192v15.594z"/>
</svg>
