<svg xmlns="http://www.w3.org/2000/svg" viewBox="0 0 82.89 30"><defs><style>.cls-1{fill:#fff;}</style></defs><title>Asset 1</title><g id="Layer_2" data-name="Layer 2"><g id="Layer_1-2" data-name="Layer 1"><rect class="cls-1" x="2.46" y="15.3" width="12.02" height="12.02"/><rect class="cls-1" x="7.79" y="12.84" width="1.35" height="1.35"/><rect class="cls-1" x="5.42" y="12.84" width="1.35" height="1.35"/><rect class="cls-1" x="10.16" y="12.84" width="1.35" height="1.35"/><rect class="cls-1" x="15.58" y="23" width="1.35" height="1.35"/><path class="cls-1" d="M15.24,12.84H12.53V14.2h2.71a.34.34,0,0,1,.34.34v2.7h1.35v-2.7A1.7,1.7,0,0,0,15.24,12.84Z"/><rect class="cls-1" x="15.58" y="18.26" width="1.35" height="1.35"/><rect class="cls-1" x="5.42" y="28.42" width="1.35" height="1.35"/><rect class="cls-1" x="15.58" y="20.63" width="1.35" height="1.35"/><rect class="cls-1" y="23" width="1.35" height="1.35"/><path class="cls-1" d="M1.35,28.08V25.37H0v2.71a1.7,1.7,0,0,0,1.69,1.69H4.4V28.42H1.69A.34.34,0,0,1,1.35,28.08Z"/><rect class="cls-1" y="18.26" width="1.35" height="1.35"/><rect class="cls-1" x="7.79" y="28.42" width="1.35" height="1.35"/><path class="cls-1" d="M15.58,28.08a.34.34,0,0,1-.34.34H12.53v1.35h2.71a1.7,1.7,0,0,0,1.69-1.69V25.37H15.58Z"/><rect class="cls-1" x="10.16" y="28.42" width="1.35" height="1.35"/><path class="cls-1" d="M1.35,14.54a.34.34,0,0,1,.34-.34H4.4V12.84H1.69A1.7,1.7,0,0,0,0,14.54v2.7H1.35Z"/><rect class="cls-1" y="20.63" width="1.35" height="1.35"/><path class="cls-1" d="M29.27,29.74A.71.71,0,0,1,28.5,29V22.59a2.59,2.59,0,0,0-.6-1.7,2.23,2.23,0,0,0-1.83-.73,2.23,2.23,0,0,0-1.83.73,2.59,2.59,0,0,0-.6,1.7V29a.71.71,0,0,1-.77.77h-.77a.71.71,0,0,1-.77-.77V22.59a4.61,4.61,0,0,1,.34-1.76,4.44,4.44,0,0,1,2.44-2.47,5.27,5.27,0,0,1,3.88,0,4.44,4.44,0,0,1,2.44,2.47,4.61,4.61,0,0,1,.34,1.76V29a.71.71,0,0,1-.77.77Z"/><path class="cls-1" d="M40.25,19a.71.71,0,0,1,.77-.77h.77a.71.71,0,0,1,.77.77V25.4a4.77,4.77,0,0,1-.33,1.76,4.36,4.36,0,0,1-2.39,2.47,5.21,5.21,0,0,1-3.86,0,4.56,4.56,0,0,1-1.47-1,4.34,4.34,0,0,1-.95-1.47,4.76,4.76,0,0,1-.33-1.76V19a.71.71,0,0,1,.77-.77h.77a.71.71,0,0,1,.77.77V25.4a2.66,2.66,0,0,0,.57,1.7,2.15,2.15,0,0,0,1.8.73,2.12,2.12,0,0,0,1.79-.73,2.7,2.7,0,0,0,.56-1.7Z"/><path class="cls-1" d="M52.77,27.47A.62.62,0,0,1,53,28a1,1,0,0,1-.23.54,4.6,4.6,0,0,1-1.34,1,4.35,4.35,0,0,1-2.08.49,5,5,0,0,1-2-.37,4.27,4.27,0,0,1-1.44-1A4.07,4.07,0,0,1,45,27.16a5.31,5.31,0,0,1-.29-1.76V22.59A4.92,4.92,0,0,1,45,20.83,4.29,4.29,0,0,1,46,19.36a4.47,4.47,0,0,1,1.44-1A4.72,4.72,0,0,1,49.32,18a4.48,4.48,0,0,1,1.86.37,4.54,4.54,0,0,1,1.35.91.74.74,0,0,1,0,1.07l-.49.49a.68.68,0,0,1-1,0,2.62,2.62,0,0,0-.73-.45,2.41,2.41,0,0,0-1-.19,2,2,0,0,0-1.76.73,2.79,2.79,0,0,0-.54,1.7V25.4a3.73,3.73,0,0,0,.12.93,2,2,0,0,0,.38.78,1.83,1.83,0,0,0,.7.52,2.73,2.73,0,0,0,1.1.19,2.25,2.25,0,0,0,1.15-.28,4.53,4.53,0,0,0,.77-.54.71.71,0,0,1,1.07,0Z"/><path class="cls-1" d="M57.88,29.74a2.87,2.87,0,0,1-2.36-.89,3.73,3.73,0,0,1-.73-2.43V13.14a.71.71,0,0,1,.77-.77h.77a.71.71,0,0,1,.77.77V26.68a.91.91,0,0,0,.23.65.87.87,0,0,0,.66.24h.26a.71.71,0,0,1,.77.77V29a.71.71,0,0,1-.77.77Z"/><path class="cls-1" d="M68.71,27.24a.66.66,0,0,1,.22.51.92.92,0,0,1-.22.54,4.84,4.84,0,0,1-1.51,1.17,4.94,4.94,0,0,1-2.38.54,5.12,5.12,0,0,1-1.93-.34,4.34,4.34,0,0,1-1.47-1,4.27,4.27,0,0,1-.95-1.43,4.57,4.57,0,0,1-.33-1.74v-3a5.2,5.2,0,0,1,.29-1.75,4.06,4.06,0,0,1,.87-1.44,4.15,4.15,0,0,1,1.41-1,4.77,4.77,0,0,1,1.9-.36,4.86,4.86,0,0,1,1.92.36,4.4,4.4,0,0,1,1.44,1,4.19,4.19,0,0,1,.92,1.44,4.84,4.84,0,0,1,.32,1.75V24a.71.71,0,0,1-.77.77H62.71a.23.23,0,0,0-.26.26v.46A2.41,2.41,0,0,0,63,27.16a2.26,2.26,0,0,0,1.8.66,2.78,2.78,0,0,0,1.51-.34,4.2,4.2,0,0,0,.82-.65.69.69,0,0,1,1.07,0Zm-1.79-4.73a2.62,2.62,0,0,0-.54-1.66,2.1,2.1,0,0,0-1.76-.69,1.92,1.92,0,0,0-1.69.69,2.81,2.81,0,0,0-.49,1.66v.13a.23.23,0,0,0,.26.26h4a.23.23,0,0,0,.26-.26Z"/><path class="cls-1" d="M76.88,30a5.8,5.8,0,0,1-2.34-.47,6.1,6.1,0,0,1-3.19-3.19,6,6,0,0,1,0-4.67,6.1,6.1,0,0,1,3.19-3.19,6,6,0,0,1,4.67,0,6.1,6.1,0,0,1,3.19,3.19,6,6,0,0,1,0,4.67,6.1,6.1,0,0,1-3.19,3.19A5.8,5.8,0,0,1,76.88,30Zm0-2.17a3.52,3.52,0,0,0,1.47-.31,3.83,3.83,0,0,0,1.17-.82,3.68,3.68,0,0,0,.78-1.21,4.11,4.11,0,0,0,0-3,3.68,3.68,0,0,0-.78-1.21,3.83,3.83,0,0,0-1.17-.82,3.67,3.67,0,0,0-2.94,0,3.83,3.83,0,0,0-1.17.82,3.67,3.67,0,0,0-.78,1.21,4.11,4.11,0,0,0,0,3,3.67,3.67,0,0,0,.78,1.21,3.82,3.82,0,0,0,1.17.82A3.52,3.52,0,0,0,76.88,27.83Z"/><path class="cls-1" d="M2.47,5.42a1.52,1.52,0,0,1-.57-.1A1.33,1.33,0,0,1,1.46,5a1.23,1.23,0,0,1-.28-.43,1.44,1.44,0,0,1-.1-.54V3.19a1.39,1.39,0,0,1,.1-.54,1.27,1.27,0,0,1,.71-.71,1.42,1.42,0,0,1,.55-.1h.79a.07.07,0,0,0,.08-.08V.24A.24.24,0,0,1,3.37.06.24.24,0,0,1,3.55,0h.24A.24.24,0,0,1,4,.06.24.24,0,0,1,4,.24V5.18a.22.22,0,0,1-.24.24Zm.84-2.83a.07.07,0,0,0-.08-.08H2.47a.64.64,0,0,0-.68.68v.88a.64.64,0,0,0,.2.49.67.67,0,0,0,.48.19h.76a.07.07,0,0,0,.08-.08Z"/><path class="cls-1" d="M7.38,4.64a.21.21,0,0,1,.07.16A.29.29,0,0,1,7.38,5a1.51,1.51,0,0,1-.47.37,1.54,1.54,0,0,1-.74.17,1.6,1.6,0,0,1-.6-.11,1.35,1.35,0,0,1-.46-.3,1.33,1.33,0,0,1-.3-.45,1.42,1.42,0,0,1-.1-.54V3.17a1.62,1.62,0,0,1,.09-.55,1.27,1.27,0,0,1,.27-.45,1.29,1.29,0,0,1,.44-.3,1.49,1.49,0,0,1,.59-.11,1.52,1.52,0,0,1,.6.11,1.37,1.37,0,0,1,.45.3,1.31,1.31,0,0,1,.29.45,1.52,1.52,0,0,1,.1.55v.48a.22.22,0,0,1-.24.24H5.5A.07.07,0,0,0,5.42,4v.14a.75.75,0,0,0,.18.51.7.7,0,0,0,.56.21.87.87,0,0,0,.47-.11,1.31,1.31,0,0,0,.26-.2.22.22,0,0,1,.34,0ZM6.82,3.17a.82.82,0,0,0-.17-.52.65.65,0,0,0-.55-.22.6.6,0,0,0-.53.22.88.88,0,0,0-.15.52v0a.07.07,0,0,0,.08.08H6.74a.07.07,0,0,0,.08-.08Z"/><path class="cls-1" d="M8.25,4.63q.14-.16.33,0a1,1,0,0,0,.21.13.68.68,0,0,0,.3.06.63.63,0,0,0,.36-.1.29.29,0,0,0,.14-.26.34.34,0,0,0-.12-.26A2.24,2.24,0,0,0,9,3.93a3.14,3.14,0,0,1-.38-.22,1.43,1.43,0,0,1-.28-.24.94.94,0,0,1-.24-.67,1,1,0,0,1,.08-.41,1,1,0,0,1,.23-.34,1.08,1.08,0,0,1,.36-.23,1.4,1.4,0,0,1,1,0,1.24,1.24,0,0,1,.36.24.29.29,0,0,1,.07.17.21.21,0,0,1-.07.16L10,2.6a.33.33,0,0,1-.15.09.16.16,0,0,1-.16-.06.69.69,0,0,0-.48-.2.48.48,0,0,0-.34.1.36.36,0,0,0-.11.27.33.33,0,0,0,.15.27,2.06,2.06,0,0,0,.38.22,3,3,0,0,1,.4.21,1.61,1.61,0,0,1,.31.24,1,1,0,0,1,.2.3.93.93,0,0,1,.07.38,1,1,0,0,1-.1.47,1,1,0,0,1-.28.34,1.15,1.15,0,0,1-.39.21,1.5,1.5,0,0,1-.44.07,1.59,1.59,0,0,1-.61-.1,1,1,0,0,1-.38-.27A.26.26,0,0,1,8,5,.22.22,0,0,1,8.1,4.8Z"/><path class="cls-1" d="M13.48,4.64a.21.21,0,0,1,.07.16.29.29,0,0,1-.07.17,1.51,1.51,0,0,1-.47.37,1.54,1.54,0,0,1-.74.17,1.6,1.6,0,0,1-.6-.11,1.35,1.35,0,0,1-.46-.3,1.33,1.33,0,0,1-.3-.45,1.42,1.42,0,0,1-.1-.54V3.17a1.62,1.62,0,0,1,.09-.55,1.27,1.27,0,0,1,.27-.45,1.29,1.29,0,0,1,.44-.3,1.49,1.49,0,0,1,.59-.11,1.52,1.52,0,0,1,.6.11,1.37,1.37,0,0,1,.45.3,1.31,1.31,0,0,1,.29.45,1.52,1.52,0,0,1,.1.55v.48a.22.22,0,0,1-.24.24H11.6a.07.07,0,0,0-.08.08v.14a.75.75,0,0,0,.18.51.7.7,0,0,0,.56.21.87.87,0,0,0,.47-.11,1.31,1.31,0,0,0,.26-.2.22.22,0,0,1,.34,0Zm-.56-1.48a.82.82,0,0,0-.17-.52.65.65,0,0,0-.55-.22.6.6,0,0,0-.53.22.88.88,0,0,0-.15.52v0a.07.07,0,0,0,.08.08h1.24a.07.07,0,0,0,.08-.08Z"/><path class="cls-1" d="M16.79,5.42a.22.22,0,0,1-.24-.24v-2a.81.81,0,0,0-.19-.53.83.83,0,0,0-1.14,0,.81.81,0,0,0-.19.53v2a.22.22,0,0,1-.24.24h-.24a.22.22,0,0,1-.24-.24v-2a1.44,1.44,0,0,1,.11-.55,1.39,1.39,0,0,1,.76-.77,1.65,1.65,0,0,1,1.21,0,1.39,1.39,0,0,1,.76.77,1.44,1.44,0,0,1,.11.55v2a.22.22,0,0,1-.24.24Z"/><path class="cls-1" d="M19.1,5.42a.35.35,0,0,1-.18,0,.29.29,0,0,1-.11-.18L17.72,2.06a.16.16,0,0,1,0-.16.19.19,0,0,1,.16-.06h.3a.25.25,0,0,1,.27.19l.76,2.37c0,.06,0,.09.08.09s.06,0,.08-.09L20.13,2a.25.25,0,0,1,.27-.19h.3a.19.19,0,0,1,.16.06.16.16,0,0,1,0,.16L19.77,5.21a.29.29,0,0,1-.11.18.35.35,0,0,1-.18,0Z"/><path class="cls-1" d="M23,5.5a1.81,1.81,0,0,1-.73-.15,1.9,1.9,0,0,1-1-1,1.88,1.88,0,0,1,0-1.46,1.9,1.9,0,0,1,1-1,1.88,1.88,0,0,1,1.46,0,1.9,1.9,0,0,1,1,1,1.88,1.88,0,0,1,0,1.46,1.9,1.9,0,0,1-1,1A1.81,1.81,0,0,1,23,5.5Zm0-.68a1.1,1.1,0,0,0,.46-.1,1.2,1.2,0,0,0,.37-.26,1.14,1.14,0,0,0,.24-.38,1.29,1.29,0,0,0,0-.93,1.14,1.14,0,0,0-.24-.38,1.19,1.19,0,0,0-.37-.26,1.14,1.14,0,0,0-.92,0,1.19,1.19,0,0,0-.37.26,1.14,1.14,0,0,0-.24.38,1.29,1.29,0,0,0,0,.93,1.14,1.14,0,0,0,.24.38,1.19,1.19,0,0,0,.37.26A1.1,1.1,0,0,0,23,4.83Z"/><path class="cls-1" d="M26.55,5.42a.9.9,0,0,1-.74-.28,1.17,1.17,0,0,1-.23-.76V.24a.24.24,0,0,1,.06-.18A.24.24,0,0,1,25.82,0h.24a.24.24,0,0,1,.18.06.24.24,0,0,1,.06.18V4.47a.28.28,0,0,0,.07.2.27.27,0,0,0,.21.08h.08A.22.22,0,0,1,26.9,5v.2a.22.22,0,0,1-.24.24Z"/><path class="cls-1" d="M28.42,5.42a.35.35,0,0,1-.18,0,.29.29,0,0,1-.11-.18L27,2.06a.16.16,0,0,1,0-.16.19.19,0,0,1,.16-.06h.3a.25.25,0,0,1,.27.19l.76,2.37c0,.06,0,.09.08.09s.06,0,.08-.09L29.45,2a.25.25,0,0,1,.27-.19H30a.19.19,0,0,1,.16.06.16.16,0,0,1,0,.16L29.09,5.21a.29.29,0,0,1-.11.18.35.35,0,0,1-.18,0Z"/><path class="cls-1" d="M31,1.28a.24.24,0,0,1-.18-.06A.24.24,0,0,1,30.71,1V.64a.24.24,0,0,1,.06-.18A.24.24,0,0,1,31,.4h.24a.24.24,0,0,1,.18.06.24.24,0,0,1,.06.18V1a.24.24,0,0,1-.06.18.24.24,0,0,1-.18.06Zm0,4.15a.22.22,0,0,1-.24-.24V2.07A.22.22,0,0,1,31,1.83h.24a.22.22,0,0,1,.24.24V5.18a.22.22,0,0,1-.24.24Z"/><path class="cls-1" d="M33.58,5.42a1.52,1.52,0,0,1-.57-.1A1.33,1.33,0,0,1,32.57,5a1.23,1.23,0,0,1-.28-.43,1.44,1.44,0,0,1-.1-.54V3.19a1.39,1.39,0,0,1,.1-.54A1.27,1.27,0,0,1,33,1.94a1.42,1.42,0,0,1,.55-.1h.79a.07.07,0,0,0,.08-.08V.24a.24.24,0,0,1,.06-.18A.24.24,0,0,1,34.66,0h.24a.24.24,0,0,1,.18.06.24.24,0,0,1,.06.18V5.18a.22.22,0,0,1-.24.24Zm.84-2.83a.07.07,0,0,0-.08-.08h-.76a.64.64,0,0,0-.68.68v.88a.64.64,0,0,0,.2.49.67.67,0,0,0,.48.19h.76a.07.07,0,0,0,.08-.08Z"/><path class="cls-1" d="M37.61,5.5a1.81,1.81,0,0,1-.73-.15,1.9,1.9,0,0,1-1-1,1.88,1.88,0,0,1,0-1.46,1.9,1.9,0,0,1,1-1,1.88,1.88,0,0,1,1.46,0,1.9,1.9,0,0,1,1,1,1.88,1.88,0,0,1,0,1.46,1.9,1.9,0,0,1-1,1A1.81,1.81,0,0,1,37.61,5.5Zm0-.68a1.1,1.1,0,0,0,.46-.1,1.2,1.2,0,0,0,.37-.26,1.14,1.14,0,0,0,.24-.38,1.29,1.29,0,0,0,0-.93,1.14,1.14,0,0,0-.24-.38,1.19,1.19,0,0,0-.37-.26,1.14,1.14,0,0,0-.92,0,1.19,1.19,0,0,0-.37.26,1.14,1.14,0,0,0-.24.38,1.29,1.29,0,0,0,0,.93,1.14,1.14,0,0,0,.24.38,1.19,1.19,0,0,0,.37.26A1.1,1.1,0,0,0,37.61,4.83Z"/><path class="cls-1" d="M42.36,7.26A.22.22,0,0,1,42.12,7V2.07a.22.22,0,0,1,.24-.24h1.32a1.52,1.52,0,0,1,.57.1,1.33,1.33,0,0,1,.44.28,1.22,1.22,0,0,1,.28.43,1.44,1.44,0,0,1,.1.54v.88a1.4,1.4,0,0,1-.1.54,1.27,1.27,0,0,1-.71.71,1.42,1.42,0,0,1-.55.1h-.79a.07.07,0,0,0-.08.08V7a.22.22,0,0,1-.24.24Zm2-4.07a.64.64,0,0,0-.2-.49.67.67,0,0,0-.48-.19h-.76a.07.07,0,0,0-.08.08V4.67a.07.07,0,0,0,.08.08h.76a.64.64,0,0,0,.68-.68Z"/><path class="cls-1" d="M47.46,5.5a1.81,1.81,0,0,1-.73-.15,1.9,1.9,0,0,1-1-1,1.88,1.88,0,0,1,0-1.46,1.9,1.9,0,0,1,1-1,1.88,1.88,0,0,1,1.46,0,1.9,1.9,0,0,1,1,1,1.88,1.88,0,0,1,0,1.46,1.9,1.9,0,0,1-1,1A1.81,1.81,0,0,1,47.46,5.5Zm0-.68a1.1,1.1,0,0,0,.46-.1,1.2,1.2,0,0,0,.37-.26,1.14,1.14,0,0,0,.24-.38,1.29,1.29,0,0,0,0-.93,1.14,1.14,0,0,0-.24-.38,1.19,1.19,0,0,0-.37-.26,1.14,1.14,0,0,0-.92,0,1.19,1.19,0,0,0-.37.26,1.14,1.14,0,0,0-.24.38,1.29,1.29,0,0,0,0,.93,1.14,1.14,0,0,0,.24.38,1.19,1.19,0,0,0,.37.26A1.1,1.1,0,0,0,47.46,4.83Z"/><path class="cls-1" d="M50.17,5.42a.22.22,0,0,1-.24-.24v-2a1.35,1.35,0,0,1,.33-.95,1.2,1.2,0,0,1,.93-.37h.29a.22.22,0,0,1,.24.24v.2a.22.22,0,0,1-.24.24h-.24a.54.54,0,0,0-.45.19.77.77,0,0,0-.15.49v2a.22.22,0,0,1-.24.24Z"/></g></g></svg>